<svg width="68" height="22" viewBox="0 0 68 22" fill="none" xmlns="http://www.w3.org/2000/svg">
	<path d="M35.0954 7.00512C35.0567 10.0576 37.8158 11.7608 39.8941 12.7736C42.0294 13.8127 42.7467 14.479 42.7382 15.4083C42.7223 16.8304 41.0349 17.458 39.4559 17.4824C36.7012 17.5251 35.0994 16.7387 33.8261 16.1439L32.8337 20.7875C34.1113 21.3762 36.4769 21.8896 38.9301 21.9121C44.6885 21.9121 48.4558 19.0696 48.4762 14.6624C48.4987 9.06915 40.7396 8.75955 40.7926 6.25951C40.8109 5.50143 41.5343 4.69247 43.1193 4.48678C43.9039 4.38288 46.0697 4.30336 48.5252 5.43411L49.489 0.941339C48.1685 0.460519 46.4713 0.000109154 44.3582 0.000109154C38.9383 0.000109154 35.1262 2.88131 35.0954 7.00512V7.00512ZM58.7497 0.387097C57.6982 0.387097 56.8121 1.00045 56.4166 1.94167L48.191 21.5821H53.9452L55.0903 18.4176H62.1218L62.786 21.5821H67.8577L63.432 0.387097H58.7497V0.387097ZM59.5547 6.11266L61.2153 14.0716H56.6674L59.5547 6.11266V6.11266ZM28.1188 0.387362L23.5831 21.5818H29.0664L33.6 0.386832H28.1188V0.387362ZM20.0072 0.386832L14.2999 14.8133L11.9912 2.54707C11.7203 1.17777 10.6505 0.387097 9.46252 0.387097H0.132933L0.0022583 1.00257C1.91758 1.41818 4.09373 2.08852 5.41214 2.80577C6.21898 3.24392 6.44905 3.62693 6.71411 4.66809L11.0868 21.5821H16.8813L25.7651 0.387097H20.0072" fill="url(#gradient_visa)" />
	<defs>
		<linearGradient id="gradient_visa" x1="31.1981" y1="22.3517" x2="31.8324" y2="-0.152282" gradientUnits="userSpaceOnUse">
			<stop stop-color="#222357" />
			<stop offset="1" stop-color="#254AA5" />
		</linearGradient>
	</defs>
</svg>