<svg style="visibility:hidden; width: 0; height: 0;">
	<defs>
		<linearGradient id="gradient">
			<stop stop-color="#222357" />
			<stop offset="1" stop-color="#254AA5" />
		</linearGradient>
	</defs>
	<symbol id="icon_visa" viewBox="0 0 34 12">
		<path d="M17.584 3.83626C17.5646 5.50791 18.947 6.4407 19.9884 6.99535C21.0584 7.56438 21.4177 7.92931 21.4135 8.43823C21.4055 9.21701 20.56 9.56075 19.7689 9.5741C18.3886 9.59747 17.586 9.16679 16.9479 8.84105L16.4507 11.3841C17.0908 11.7065 18.2762 11.9877 19.5054 12C22.3907 12 24.2784 10.4433 24.2886 8.02976C24.2999 4.96661 20.4121 4.79707 20.4386 3.42793C20.4478 3.01277 20.8103 2.56975 21.6045 2.45711C21.9976 2.4002 23.0828 2.35666 24.3132 2.9759L24.7961 0.51546C24.1344 0.252142 23.284 3.15888e-07 22.2252 3.15888e-07C19.5095 3.15888e-07 17.5994 1.57788 17.584 3.83626V3.83626ZM29.4363 0.211932C28.9094 0.211932 28.4654 0.54783 28.2673 1.06329L24.1457 11.8193H27.0289L27.6027 10.0862H31.1259L31.4588 11.8193H34L31.7824 0.211932H29.4363V0.211932ZM29.8396 3.34751L30.6717 7.7062H28.3929L29.8396 3.34751V3.34751ZM14.0882 0.212077L11.8155 11.8191H14.563L16.8346 0.211787H14.0882V0.212077ZM10.0238 0.211787L7.16404 8.11235L6.00724 1.39483C5.87151 0.644942 5.33548 0.211932 4.74021 0.211932H0.0654766L0 0.548991C0.959703 0.7766 2.05009 1.14371 2.7107 1.53651C3.11498 1.77646 3.23027 1.98621 3.36308 2.55639L5.55409 11.8193H8.4575L12.9088 0.211932H10.0238" fill="url(#gradient)" />
	</symbol>
</svg>