<svg width="63" height="63" fill="none" xmlns="http://www.w3.org/2000/svg"><path d="M24.777 43.79c-.336 0-.672-.128-.929-.383L6.216 25.772a5.257 5.257 0 010-7.426 5.258 5.258 0 017.423 0l15.78 15.779a1.313 1.313 0 01-1.856 1.856l-15.78-15.779a2.634 2.634 0 00-3.711 0 2.618 2.618 0 00-.77 1.856c0 .703.274 1.362.77 1.858l17.635 17.632a1.313 1.313 0 01-.93 2.242z" fill="#000"/><path d="M34.06 30.797c-.337 0-.673-.13-.93-.384L15.498 12.778a2.625 2.625 0 10-3.714 3.712l1.855 1.856a1.313 1.313 0 01-1.855 1.856l-1.856-1.856a5.214 5.214 0 01-1.538-3.712c0-1.401.546-2.72 1.538-3.711 1.982-1.982 5.439-1.988 7.426 0l17.632 17.634a1.313 1.313 0 01-.927 2.24z" fill="#000"/><path d="M39.63 25.229c-.336 0-.672-.129-.93-.383L24.777 10.923a2.622 2.622 0 00-3.711 0 2.627 2.627 0 000 3.711 1.313 1.313 0 01-1.856 1.856 5.258 5.258 0 010-7.423 5.258 5.258 0 017.423 0L40.556 22.99a1.313 1.313 0 01-.926 2.239z" fill="#000"/><path d="M38.196 59.467c-.884 0-1.78-.1-2.667-.302l-22.102-5.066a5.123 5.123 0 01-2.57-1.413 5.221 5.221 0 01-1.54-3.711c0-1.402.548-2.72 1.54-3.712a5.12 5.12 0 012.407-1.37c.026-.01.053-.016.079-.024l11.13-2.67a1.308 1.308 0 011.583.972 1.316 1.316 0 01-.972 1.582l-11.053 2.652-.105.029a2.488 2.488 0 00-1.213.687 2.61 2.61 0 00-.772 1.856c0 .701.273 1.36.772 1.856a2.547 2.547 0 001.268.704l22.136 5.074a9.13 9.13 0 008.55-2.46l10.741-10.744A9.128 9.128 0 0058.1 36.91a9.133 9.133 0 00-2.69-6.497L32.206 7.211a2.622 2.622 0 00-3.712 0 2.627 2.627 0 000 3.712 1.313 1.313 0 01-1.855 1.855 5.258 5.258 0 010-7.423 5.258 5.258 0 017.423 0l23.202 23.202a11.72 11.72 0 013.46 8.353 11.73 11.73 0 01-3.46 8.353L46.523 56.007a11.765 11.765 0 01-8.327 3.46z" fill="#000"/></svg>