<svg width="68" height="22" fill="none" xmlns="http://www.w3.org/2000/svg"><path d="M35.095 7.005c-.038 3.053 2.72 4.756 4.8 5.769 2.134 1.039 2.852 1.705 2.843 2.634-.016 1.422-1.703 2.05-3.282 2.074-2.755.043-4.357-.743-5.63-1.338l-.992 4.644c1.277.588 3.643 1.102 6.096 1.124 5.758 0 9.526-2.842 9.546-7.25C48.5 9.07 40.74 8.76 40.793 6.26c.018-.759.741-1.568 2.326-1.773.785-.104 2.95-.184 5.406.947L49.49.941c-1.32-.48-3.018-.94-5.13-.94-5.42 0-9.233 2.88-9.264 7.004zM58.75.387a2.5 2.5 0 00-2.333 1.555l-8.226 19.64h5.754l1.145-3.164h7.032l.664 3.164h5.072L63.432.387H58.75zm.805 5.726l1.66 7.959h-4.548l2.888-7.96zM28.119.387l-4.536 21.195h5.483L33.6.387h-5.481zm-8.112 0L14.3 14.813 11.99 2.547c-.27-1.37-1.34-2.16-2.528-2.16H.133l-.13.616c1.915.415 4.09 1.086 5.41 1.803.806.438 1.036.82 1.301 1.862l4.373 16.914h5.794L25.765.387h-5.758" fill="url(#gradient_visa)"/><defs><linearGradient id="gradient_visa" x1="31.198" y1="22.352" x2="31.832" y2="-.152" gradientUnits="userSpaceOnUse"><stop stop-color="#222357"/><stop offset="1" stop-color="#254AA5"/></linearGradient></defs></svg>