<svg width="25" height="25" fill="none" xmlns="http://www.w3.org/2000/svg"><g clip-path="url(#clip0_4_511)"><path d="M21.517 22.65l-.358-1.672a28.3 28.3 0 00-4.02-9.625V8.64a3.659 3.659 0 001.465-2.928V4.248a.732.732 0 00-.733-.732h-.732V.732a.733.733 0 00-1.465 0v2.791A4.15 4.15 0 0012.5 5.315a4.15 4.15 0 00-3.174-1.792V.733a.732.732 0 00-1.465 0v2.783H7.13a.732.732 0 00-.732.732v1.465c0 1.195.576 2.259 1.464 2.928v2.712a28.3 28.3 0 00-4.02 9.625l-.358 1.671a.732.732 0 00.466.842A24.91 24.91 0 0012.5 25a24.91 24.91 0 008.552-1.51.732.732 0 00.465-.84zM15.918 4.98h1.22v.733a2.2 2.2 0 01-2.197 2.197h-1.709v-.244a2.689 2.689 0 012.686-2.686zm-8.057 0h1.221a2.689 2.689 0 012.686 2.686v.244h-1.71a2.2 2.2 0 01-2.197-2.197V4.98zm2.198 4.395h4.883c.25 0 .495-.025.732-.074v1.539H9.326V9.3c.237.049.482.074.733.074zm2.441 14.16c-2.541 0-5.044-.407-7.45-1.21l.224-1.04a26.84 26.84 0 013.715-8.98h7.022a26.84 26.84 0 013.716 8.98l.222 1.04a23.444 23.444 0 01-7.449 1.21z" fill="#000"/></g><defs><clipPath id="clip0_4_511"><path fill="#fff" d="M0 0h25v25H0z"/></clipPath></defs></svg>